<svg xmlns="http://www.w3.org/2000/svg" viewBox="0 0 64 64" fill="none"><path d="M32 4C28 4 24 8 22 14C18 12 14 13 12 16C10 19 11 23 14 26C10 28 8 32 8 36C8 40 10 44 14 46C12 50 13 54 16 56C19 58 23 57 26 54C28 58 32 60 36 60C40 60 44 56 46 50C50 52 54 51 56 48C58 45 57 41 54 38C58 36 60 32 60 28C60 24 58 20 54 18C56 14 55 10 52 8C49 6 45 7 42 10C40 6 36 4 32 4Z" stroke="#7c5cfc" stroke-width="1.5" opacity="0.6"/><circle cx="32" cy="32" r="6" fill="#00d4aa" opacity="0.8"/><circle cx="20" cy="20" r="3" fill="#7c5cfc" opacity="0.6"/><circle cx="44" cy="20" r="3" fill="#7c5cfc" opacity="0.6"/><circle cx="20" cy="44" r="3" fill="#00d4aa" opacity="0.6"/><circle cx="44" cy="44" r="3" fill="#00d4aa" opacity="0.6"/><line x1="32" y1="32" x2="20" y2="20" stroke="#7c5cfc" stroke-width="0.8" opacity="0.3"/><line x1="32" y1="32" x2="44" y2="20" stroke="#7c5cfc" stroke-width="0.8" opacity="0.3"/><line x1="32" y1="32" x2="20" y2="44" stroke="#00d4aa" stroke-width="0.8" opacity="0.3"/><line x1="32" y1="32" x2="44" y2="44" stroke="#00d4aa" stroke-width="0.8" opacity="0.3"/></svg>
